<?xml version="1.0" standalone="no"?>
<!DOCTYPE svg PUBLIC "-//W3C//DTD SVG 20010904//EN"
 "http://www.w3.org/TR/2001/REC-SVG-20010904/DTD/svg10.dtd">
<svg version="1.0" xmlns="http://www.w3.org/2000/svg"
 width="700.000000pt" height="700.000000pt" viewBox="0 0 700.000000 700.000000"
 preserveAspectRatio="xMidYMid meet">
<metadata>
Created by potrace 1.11, written by Peter Selinger 2001-2013
</metadata>
<g transform="translate(0.000000,700.000000) scale(0.100000,-0.100000)"
fill="#000000" stroke="none">
<path d="M0 3500 l0 -3500 3500 0 3500 0 0 3500 0 3500 -3500 0 -3500 0 0
-3500z m5468 2020 c66 -40 72 -63 72 -270 0 -207 -6 -230 -72 -270 -33 -20
-55 -20 -1968 -20 -1913 0 -1935 0 -1968 20 -66 40 -72 63 -72 270 0 207 6
230 72 270 33 20 55 20 1968 20 1913 0 1935 0 1968 -20z m-1476 -1150 c20 -6
48 -24 62 -41 l26 -31 0 -209 c0 -236 -5 -260 -65 -285 -29 -12 -221 -14
-1246 -14 -1100 0 -1214 1 -1245 16 -60 28 -64 48 -64 283 l0 209 26 31 c14
17 40 35 57 40 46 13 2402 14 2449 1z m1468 -1179 c71 -38 75 -50 78 -262 3
-178 2 -191 -18 -227 -44 -79 151 -72 -2020 -72 -2134 0 -1968 -5 -2015 58
-18 25 -20 43 -20 229 0 225 3 236 75 274 33 18 105 19 1960 19 1855 0 1927
-1 1960 -19z m-1409 -1189 l29 -32 0 -220 0 -220 -29 -32 -29 -33 -1236 -3
c-1360 -2 -1278 -6 -1311 58 -22 42 -22 418 0 460 33 63 -50 60 1308 57 l1239
-2 29 -33z"/>
</g>
</svg>
